<?xml version="1.0" standalone="no"?>
<!DOCTYPE svg PUBLIC "-//W3C//DTD SVG 20010904//EN"
 "http://www.w3.org/TR/2001/REC-SVG-20010904/DTD/svg10.dtd">
<svg version="1.0" xmlns="http://www.w3.org/2000/svg"
 width="700.000000pt" height="700.000000pt" viewBox="0 0 700.000000 700.000000"
 preserveAspectRatio="xMidYMid meet">
<metadata>
Created by potrace 1.14, written by Peter Selinger 2001-2017
</metadata>
<g transform="translate(0.000000,700.000000) scale(0.100000,-0.100000)"
fill="#000000" stroke="none">
<path d="M3093 6975 c-26 -18 -40 -61 -47 -138 -14 -151 -72 -257 -170 -305
-55 -28 -92 -32 -181 -20 -137 18 -199 56 -318 196 -31 37 -56 41 -82 12 -14
-16 -19 -42 -22 -132 -7 -212 -38 -340 -90 -374 -35 -23 -149 -30 -208 -14
-46 13 -122 65 -108 73 4 2 45 17 91 32 46 15 81 32 79 38 -2 6 -41 20 -88 33
-142 38 -177 57 -200 108 -18 42 -21 45 -46 35 -41 -15 -342 -227 -343 -241 0
-4 27 -38 61 -75 88 -99 104 -138 149 -358 24 -119 46 -175 70 -175 10 0 22
12 28 28 16 41 19 61 38 255 4 38 10 65 14 60 4 -4 17 -71 29 -148 12 -77 28
-178 36 -225 9 -47 18 -103 21 -125 3 -22 7 -51 9 -64 3 -17 -4 -32 -21 -48
-14 -13 -28 -23 -32 -23 -4 0 -22 -13 -40 -30 l-33 -30 -37 19 c-20 10 -68 27
-107 39 -174 51 -302 67 -525 67 -171 -1 -219 -5 -236 -22 -95 -95 -151 -571
-99 -843 9 -47 30 -143 47 -213 29 -123 30 -130 14 -165 -9 -20 -23 -70 -31
-110 -8 -40 -19 -81 -25 -91 -14 -27 -70 -252 -70 -283 0 -15 -4 -29 -10 -33
-10 -6 -35 69 -52 163 -7 38 -16 62 -24 62 -18 0 -41 -47 -49 -100 -24 -166
-63 -208 -211 -229 -36 -6 -68 -12 -70 -14 -14 -14 15 -36 69 -51 103 -29 161
-106 192 -257 48 -232 76 -236 109 -15 8 54 16 100 18 102 2 1 4 -43 4 -99 1
-99 11 -251 21 -292 2 -11 6 -33 9 -50 6 -40 17 -98 20 -110 2 -5 10 -35 19
-65 9 -30 18 -65 21 -77 2 -12 9 -34 14 -48 6 -15 10 -28 10 -31 0 -2 -29 -4
-65 -4 -70 0 -114 -16 -138 -50 -9 -13 -44 -29 -98 -44 -46 -12 -101 -31 -122
-41 -49 -23 -87 -69 -87 -106 0 -40 40 -141 147 -368 264 -563 741 -1089 1311
-1447 122 -77 335 -187 472 -243 58 -24 119 -49 135 -56 129 -54 453 -141 630
-169 133 -21 170 -26 245 -33 166 -15 684 -9 823 10 463 63 832 184 1220 400
152 84 297 172 307 187 3 3 28 21 55 40 73 48 221 166 289 230 150 140 298
292 355 365 226 289 317 426 426 645 135 268 220 490 280 725 l33 130 -29 35
c-47 56 -49 59 -49 69 0 6 -6 14 -12 18 -7 4 -18 17 -24 28 -32 58 -152 102
-252 92 -50 -5 -56 -4 -78 22 -13 16 -41 33 -61 38 -46 12 -106 8 -111 -6 -5
-16 -41 -13 -87 6 l-40 16 1 217 c2 305 11 389 53 456 16 26 35 37 101 59 101
34 103 50 9 74 -36 9 -77 24 -92 33 -28 19 -58 91 -76 183 -20 101 -21 105
-35 105 -8 0 -23 -19 -34 -42 -12 -24 -21 -36 -22 -27 0 25 -81 273 -90 279
-5 3 -11 32 -15 65 -5 45 -2 71 11 105 13 36 18 89 21 270 2 124 -1 266 -7
315 -5 50 -11 110 -14 135 -8 89 -52 260 -67 260 -5 0 -9 7 -9 15 0 8 -4 23
-8 33 -60 124 -76 152 -84 152 -15 0 17 269 38 324 10 26 -377 337 -440 355
-18 4 -55 5 -83 1 -27 -5 -91 -11 -141 -15 -51 -4 -92 -11 -92 -16 0 -5 -6 -9
-14 -9 -8 0 -18 -10 -22 -22 -9 -29 14 -45 79 -53 118 -16 169 -40 240 -112
73 -75 157 -185 157 -207 0 -7 14 -59 30 -114 17 -56 30 -103 30 -105 0 -2
-10 -3 -22 -2 -13 1 -50 -1 -83 -5 -33 -5 -83 -11 -112 -14 -65 -7 -215 -48
-308 -84 -90 -34 -236 -109 -252 -129 -11 -14 -18 -12 -59 16 -26 17 -66 40
-90 52 -42 20 -52 39 -45 82 1 4 4 193 7 420 4 336 2 419 -9 452 -27 77 -77
55 -149 -68 -24 -41 -54 -77 -76 -92 -73 -47 -230 -58 -273 -19 -45 41 -93
181 -118 342 -13 86 -32 128 -62 137 -26 9 -51 -13 -89 -79 -40 -71 -103 -128
-185 -170 -215 -110 -389 -21 -461 235 -14 52 -33 104 -40 117 -17 26 -59 29
-91 7z"/>
<path d="M699 5608 c-53 -65 -109 -144 -167 -235 -40 -63 -51 -89 -47 -110 18
-106 48 -242 66 -298 17 -57 23 -66 41 -63 18 3 25 16 39 82 10 44 20 114 24
155 3 42 8 83 10 91 2 8 6 32 9 52 5 34 13 58 45 143 16 42 66 73 149 92 67
16 123 45 111 57 -5 5 -177 60 -225 72 -15 4 -29 -5 -55 -38z"/>
<path d="M6439 5379 c0 -8 -3 -27 -5 -44 -25 -177 -48 -246 -103 -299 -42 -41
-75 -52 -186 -61 -105 -9 -115 -12 -115 -39 0 -18 8 -25 43 -34 115 -29 134
-37 165 -66 96 -89 137 -180 178 -396 39 -211 101 -227 118 -30 16 184 51 360
81 406 8 12 35 32 60 44 38 18 45 26 40 44 -13 47 -51 109 -75 124 -33 22 -40
33 -70 127 -15 44 -39 105 -53 136 -28 59 -76 114 -78 88z"/>
</g>
</svg>
